<?xml version="1.0" ?><!DOCTYPE svg  PUBLIC '-//W3C//DTD SVG 1.1//EN'  'http://www.w3.org/Graphics/SVG/1.1/DTD/svg11.dtd'><svg enable-background="new 0 0 128 128" height="128px" id="Layer_1" version="1.1" viewBox="0 0 128 128" width="128px" xml:space="preserve" xmlns="http://www.w3.org/2000/svg" xmlns:xlink="http://www.w3.org/1999/xlink"><g><circle cx="64" cy="64" fill="#35495E" r="62"/><polygon fill="#050505" opacity="0.2" points="18.328,96.139 46.667,90.323 63.333,96.139 67.109,96.135 93.5,90.348    111.969,96.139 112.749,96.135 86.957,86.808 40.801,86.625 15.009,96.135  "/><g><polygon fill="#F8F4E4" points="83.961,36.441 90.351,33.664 92.742,33.99 91.93,31.011 78.382,27.871 82.83,58.445     87.705,43.782   "/><polygon fill="#F5F7F8" points="93.339,36.179 92.742,33.99     90.351,33.664 83.961,36.441 87.705,43.782 82.83,58.445 86.525,83.84 108.466,91.633   " stroke="#231F20" stroke-miterlimit="10" stroke-width="0.0202"/><polygon fill="#020202" opacity="0.1" points="92.517,33.164 88.664,33.019 82.879,36.262 81.177,41.356 80.462,42.168     86.525,83.84 108.466,91.633   "/><polygon fill="#689EAD" points="93.339,36.179 92.742,33.99 90.351,33.664 83.961,36.441 87.705,43.782 82.83,58.445     86.525,83.84 108.466,91.633   "/><polygon fill="#F8F3F3" points="85.26,30.491 78.533,28.907     78.604,29.396 85.364,30.996   " stroke="#919396" stroke-miterlimit="10" stroke-width="0.0202"/><polygon fill="#F8F3F3" points="81.209,35.974 79.499,35.546     79.58,36.102 81.298,36.535   " stroke="#919396" stroke-miterlimit="10" stroke-width="0.0202"/><line fill="#E9CF8D" stroke="#E47425" stroke-miterlimit="10" stroke-width="0.2422" x1="92.196" x2="92.457" y1="31.987" y2="32.946"/><polygon fill="#E9CF8D" points="92.457,32.946 92.196,31.987 85.232,30.359 85.245,30.418 85.202,30.394 82.709,33.092     79.012,32.2 79.152,33.162 82.003,33.857 79.627,36.428 79.926,38.478 86.25,31.482   "/><polygon fill="#FFFFFF" points="78.382,27.871 91.93,31.011 108.466,91.633 86.525,83.84 86.957,86.808 112.749,96.135     93.566,30.209 78.211,26.69   "/></g><path d="M93.566,30.209L78.211,26.69l0.172,1.181l0.63,4.329l0,0l0.071,0.49l0.486,3.341l0.01,0.072   l0,0l0.066,0.455l0.28,1.921l0,0l0.537,3.69l0,0l6.063,41.671l0.432,2.969l25.792,9.327L93.566,30.209z" fill="#070707" opacity="0.1"/><g><polygon fill="#F8F4E4" points="63.879,31.476 63.879,79.196 68.355,75.851 81.534,64.278 82.83,58.445 78.382,27.871   "/><polygon fill="#F5F7F8" points="81.534,64.278 68.355,75.851     63.879,79.196 63.879,92.811 86.525,83.84 82.83,58.445   " stroke="#231F20" stroke-miterlimit="10" stroke-width="0.0202"/><polygon fill="#020202" opacity="0.1" points="77.524,47.917 68.143,63.464 63.879,69.68 63.879,92.811 86.525,83.84     80.462,42.168   "/><polygon fill="#689EAD" points="81.534,64.278 68.355,75.851 63.879,79.196 63.879,92.811 86.525,83.84 82.83,58.445   "/><line fill="#F8F3F3" stroke="#919396" stroke-miterlimit="10" stroke-width="0.0202" x1="68.493" x2="69.225" y1="30.329" y2="30.147"/><polygon fill="#F8F3F3" points="69.619,38.18 69.303,31.729     78.604,29.396 78.533,28.907 69.278,31.217 69.225,30.147 68.493,30.329 68.538,31.401 63.879,32.564 63.879,33.09 68.559,31.916     68.829,38.391 63.879,39.711 63.879,40.311 68.854,38.978 69.027,43.148 63.879,44.581 63.879,45.235 69.054,43.787     69.304,49.787 70.174,49.531 69.882,43.555 77.345,41.466 77.274,40.853 69.851,42.919 69.647,38.765 79.58,36.102 79.499,35.546       " stroke="#919396" stroke-miterlimit="10" stroke-width="0.0202"/><line fill="#E9CF8D" stroke="#E47425" stroke-miterlimit="10" stroke-width="0.2422" x1="74.85" x2="76.151" y1="28.749" y2="28.426"/><polygon fill="#E9CF8D" points="77.591,40.19 76.806,33.778 79.152,33.162 79.012,32.2 76.687,32.804 76.151,28.426 74.85,28.749     75.33,33.156 63.879,36.13 63.879,37.168 75.437,34.137 76.348,42.487 73.408,47.92 63.879,50.73 63.879,52.068 72.506,49.497     63.879,62.522 63.879,65.231 74.102,49.485 74.108,49.486 79.926,38.478 79.627,36.428   "/><polygon fill="#FFFFFF" points="63.879,92.811 63.879,96.135 86.957,86.808 86.525,83.84   "/><polygon fill="#FFFFFF" points="78.211,26.69 63.879,30.209 63.879,31.476 78.382,27.871   "/></g><g><polygon fill="#F8F4E4" points="49.375,27.871 41.233,83.84 47.948,86.5 51.775,79.446 63.879,79.196 63.879,31.476   "/><polygon fill="#F5F7F8" points="51.775,79.446 47.948,86.5     63.879,92.811 63.879,79.196   " stroke="#231F20" stroke-miterlimit="10" stroke-width="0.0202"/><polygon fill="#020202" opacity="0.1" points="62.147,71.026 55.374,77.44 41.561,81.586 41.233,83.84 63.879,92.811     63.879,69.68   "/><polygon fill="#689EAD" points="51.775,79.446 47.948,86.5 63.879,92.811 63.879,79.196   "/><polygon fill="#6CA27A" points="62.276,36.216 48.678,32.667 46.727,46.076 62.062,50.613   "/><polygon fill="#F3AA7A" points="43.29,69.698 42.319,76.374 52.509,73.001   "/><path d="M44.927,69.75l0.77,0.81l8.726-8.889    l5.62,1.829l1.404,1.359l0.571-0.551l-1.648-1.583l0-0.001l-0.002-0.001l-3.592-3.449l5.617-5.723l-0.762-0.629l-5.597,5.639    l-6.001-5.762l8.701-2.296l-0.473-0.735l-8.944,2.344l-3.043-2.922l-0.125,0.86l2.351,2.276l-2.789,0.731l-0.134,0.918    l3.635-0.959l6.286,6.085l-1.54,1.551l-8.932-2.887l-0.118,0.811l8.398,2.733L44.927,69.75z M56.24,59.819l2.435,2.357    l-3.605-1.165L56.24,59.819z" fill="#F8F3F3" stroke="#919396" stroke-miterlimit="10" stroke-width="0.0202"/><polygon fill="#F8F3F3" points="62.233,39.266 62.222,39.861     63.879,40.311 63.879,39.711   " stroke="#919396" stroke-miterlimit="10" stroke-width="0.0202"/><polygon fill="#F8F3F3" points="62.161,44.096 62.149,44.745     63.879,45.235 63.879,44.581   " stroke="#919396" stroke-miterlimit="10" stroke-width="0.0202"/><polygon fill="#F8F3F3" points="49.231,28.861 49.16,29.35     63.879,33.09 63.879,32.564   " stroke="#919396" stroke-miterlimit="10" stroke-width="0.0202"/><line fill="#E9CF8D" stroke="#E47425" stroke-miterlimit="10" stroke-width="0.2422" x1="61.758" x2="63.126" y1="30.949" y2="31.289"/><polygon fill="#E9CF8D" points="62.892,63.374 62.976,51.799 63.879,52.068 63.879,50.73 62.986,50.466 63.085,36.959     63.879,37.168 63.879,36.13 63.092,35.926 63.126,31.289 61.758,30.949 61.663,35.555 48.746,32.2 48.606,33.162 61.642,36.581     61.365,49.989 46.783,45.689 46.604,46.919 61.338,51.311 61.056,64.959 52.831,72.06 43.433,68.717 43.176,70.48 50.768,73.216     42.411,75.741 42.067,78.109 53.036,74.744 53.054,74.765 53.101,74.724 53.162,74.705 53.15,74.681 63.879,65.231 63.879,62.522       "/><polygon fill="#E49390" points="46.255,53.735 45.635,58.151 54.062,60.908 55.514,58.977 49.219,52.811   "/><polygon fill="#FFFFFF" points="63.879,30.209 49.547,26.69 49.375,27.871 63.879,31.476   "/><polygon fill="#FFFFFF" points="41.233,83.84 40.801,86.808 63.879,96.135 63.879,92.811   "/></g><polygon fill="#020202" opacity="0.1" points="49.547,26.69 49.375,27.871 49.231,28.861 49.231,28.861 49.186,29.172    48.683,32.63 48.606,33.162 48.606,33.162 48.338,35.005 46.727,46.076 46.727,46.076 46.191,49.756 46.149,50.05 46.149,50.05    45.026,57.764 45.026,57.764 44.987,58.037 43.29,69.698 43.29,69.698 42.858,72.67 42.411,75.741 42.411,75.741 42.376,75.979    41.561,81.586 41.561,81.586 41.233,83.84 40.801,86.808 63.879,96.135 63.879,92.811 63.879,79.196 63.879,69.68 63.879,65.231    63.879,62.522 63.879,52.068 63.879,50.73 63.879,45.235 63.879,44.581 63.879,40.311 63.879,39.711 63.879,37.168 63.879,36.13    63.879,33.09 63.879,32.564 63.879,31.476 63.879,30.209  "/><g><polygon fill="#F8F4E4" points="35.828,31.011 19.292,91.633 41.233,83.84 49.375,27.871   "/><polygon fill="#020202" opacity="0.1" points="37.726,85.085 41.233,83.84 41.561,81.586   "/><polygon fill="#6CA27A" points="44.16,33.763 41.6,47.472 46.727,46.076 48.678,32.667   "/><polygon fill="#F3AA7A" points="34.935,83.161 42.319,76.374 43.29,69.698 37.072,71.716   "/><line fill="#F8F3F3" stroke="#919396" stroke-miterlimit="10" stroke-width="0.0202" x1="25.28" x2="23.996" y1="89.506" y2="89.962"/><line fill="#F8F3F3" stroke="#919396" stroke-miterlimit="10" stroke-width="0.0202" x1="26.814" x2="27.054" y1="64.056" y2="63.175"/><polygon fill="#F8F3F3" points="31.997,61.687 34.995,49.274     34.052,49.529 30.95,62.002 27.054,63.175 26.814,64.056 30.734,62.869 23.996,89.962 25.28,89.506 31.789,62.549 44.908,58.576     45.026,57.764   " stroke="#919396" stroke-miterlimit="10" stroke-width="0.0202"/><polygon fill="#F8F3F3" points="39.578,57.81 40.023,58.307     45.578,53.975 45.711,53.057   " stroke="#919396" stroke-miterlimit="10" stroke-width="0.0202"/><polygon fill="#F8F3F3" points="41.99,48.032 41.362,48.746     46.149,50.05 46.274,49.19   " stroke="#919396" stroke-miterlimit="10" stroke-width="0.0202"/><polygon fill="#F8F3F3" points="32.023,44.963 42.265,42.3     42.386,41.677 32.2,44.311   " stroke="#919396" stroke-miterlimit="10" stroke-width="0.0202"/><polygon fill="#F8F3F3" points="35.547,32.044 35.405,32.564     49.16,29.35 49.231,28.861   " stroke="#919396" stroke-miterlimit="10" stroke-width="0.0202"/><polygon fill="#F8F3F3" points="33.359,40.061 43.151,37.62     43.262,37.048 33.523,39.464   " stroke="#919396" stroke-miterlimit="10" stroke-width="0.0202"/><line fill="#E9CF8D" stroke="#E47425" stroke-miterlimit="10" stroke-width="0.2422" x1="44.473" x2="45.876" y1="29.007" y2="28.682"/><line fill="#E9CF8D" stroke="#E47425" stroke-miterlimit="10" stroke-width="0.2422" x1="32.187" x2="28.127" y1="87.053" y2="88.495"/><line fill="#E9CF8D" stroke="#E47425" stroke-miterlimit="10" stroke-width="0.2422" x1="23.293" x2="23.818" y1="76.965" y2="75.039"/><polygon fill="#E9CF8D" points="36.501,81.018 38.092,72.138 43.176,70.48 43.433,68.717 38.415,70.334 42.403,48.071     46.604,46.919 46.783,45.689 42.628,46.817 44.912,34.062 48.606,33.162 48.746,32.2 45.088,33.083 45.876,28.682 44.473,29.007     43.621,33.437 34.57,35.623 34.29,36.65 43.431,34.423 40.958,47.271 30.628,50.076 30.266,51.4 40.715,48.534 36.394,70.986     23.818,75.039 23.293,76.965 36.044,72.807 34.04,83.215 28.127,88.495 32.187,87.053 42.067,78.109 42.411,75.741   "/><polygon fill="#FFFFFF" points="19.292,91.633 35.828,31.011 49.375,27.871 49.547,26.69 34.192,30.209 15.009,96.135     40.801,86.808 41.233,83.84   "/></g><path d="M42.067,16.17c-10.701,0-19.375,8.674-19.375,19.375c0,2.874,0.787,6.172,2.118,8.719l0.172,0.309   l16.171,29.052c0,0,0.26,0.675,0.914,0.675c0.622,0,0.914-0.675,0.914-0.675L59.242,44.41c1.437-2.715,2.2-5.991,2.2-8.865   C61.442,24.844,52.767,16.17,42.067,16.17z M42.056,50.61c-8.284,0-15-6.716-15-15c0-8.284,6.716-15,15-15c8.284,0,15,6.716,15,15   C57.056,43.895,50.34,50.61,42.056,50.61z" fill="#D04946"/></g></svg>