<?xml version="1.0" ?><!DOCTYPE svg  PUBLIC '-//W3C//DTD SVG 1.1//EN'  'http://www.w3.org/Graphics/SVG/1.1/DTD/svg11.dtd'><svg enable-background="new 0 0 512 512" height="512px" id="Layer_1" version="1.1" viewBox="0 0 512 512" width="512px" xml:space="preserve" xmlns="http://www.w3.org/2000/svg" xmlns:xlink="http://www.w3.org/1999/xlink"><g><path d="M512,256.002c0,45.314-11.772,87.881-32.43,124.803c-24.678,44.111-62.034,80.172-107.139,103.248   c-19.244,9.846-39.9,17.326-61.59,22.059c-17.667,3.855-36.016,5.889-54.839,5.889C114.616,512,0,397.385,0,256.002   C0,114.615,114.616,0,256.003,0C381.545,0,485.98,90.375,507.804,209.611C510.563,224.654,512,240.164,512,256.002z" fill="#0E9AA7"/><path clip-rule="evenodd" d="M512,256.002c0,45.314-11.772,87.881-32.43,124.803   c-24.678,44.111-62.034,80.172-107.139,103.248c-19.244,9.846-39.9,17.326-61.59,22.059L48.761,239.316l0.034-0.023l0.006-0.006   l67.093-48.756l0.005-0.004l26.861,20.23l62.235-20.227H205l0.005-0.004l28.409,20.217l0.015,0.014h0.005l20.742-50.371   l0.005,0.004l41.488,30.137l26.861,20.23v-0.004l20.757-50.363v-0.004l41.488,30.141l36.912-4.166l0.024-0.051l13.479-30.539   l72.612,53.84C510.563,224.654,512,240.164,512,256.002z" fill="#255873" fill-rule="evenodd"/><polygon fill="#FB5919" points="74.398,160.383 87.222,186.365 115.894,190.531 95.147,210.756 100.045,239.311 74.398,225.83    48.755,239.311 53.653,210.756 32.904,190.531 61.577,186.365  "/><polygon fill="#FB5919" points="163.504,160.383 176.326,186.365 205,190.531 184.252,210.756 189.15,239.311 163.504,225.83    137.858,239.311 142.757,210.756 122.008,190.531 150.68,186.365  "/><polygon fill="#FB5919" points="254.176,160.383 266.998,186.365 295.672,190.531 274.925,210.756 279.821,239.311 254.176,225.83    228.529,239.311 233.43,210.756 212.68,190.531 241.354,186.365  "/><polygon fill="#FB5919" points="343.28,160.383 356.103,186.365 384.775,190.531 364.027,210.756 368.925,239.311 343.28,225.83    317.636,239.311 322.533,210.756 301.785,190.531 330.457,186.365  "/><polygon fill="none" points="434.509,160.383 447.332,186.365    476.004,190.531 455.256,210.756 460.154,239.311 434.509,225.83 408.862,239.311 413.762,210.756 393.015,190.531    421.687,186.365  " stroke="#FBBA19" stroke-miterlimit="10" stroke-width="6.6369"/><path clip-rule="evenodd" d="M479.57,380.805c-24.678,44.111-62.034,80.172-107.139,103.248   c-33.752-24.965-75.541-53.889-123.524-45.326c-11.573-51.389,53.297-37.531,83.413-38.373   c-2.108-32.615-47.293-116.789-30.827-135.012c30.131-33.381,47.433,37.463,53.973,68.98c3.53-5.779,7.867-10.254,16.305-11.803   c5.333-0.967,11.918,5.268,19.57,4.201c5.749-0.807,10.771-6.926,16.18-7.547c8.753-0.961,16.095,5.543,20.701,8.107   C466.591,311.162,476.166,343.572,479.57,380.805z" fill="#FBBA19" fill-rule="evenodd"/></g></svg>