<?xml version="1.0" ?><!DOCTYPE svg  PUBLIC '-//W3C//DTD SVG 1.0//EN'  'http://www.w3.org/TR/2001/REC-SVG-20010904/DTD/svg10.dtd'><svg height="22mm" style="shape-rendering:geometricPrecision; text-rendering:geometricPrecision; image-rendering:optimizeQuality; fill-rule:evenodd; clip-rule:evenodd" version="1.0" viewBox="0 0 4929 4929" width="22mm" xml:space="preserve" xmlns="http://www.w3.org/2000/svg" xmlns:xlink="http://www.w3.org/1999/xlink"><defs><style type="text/css">
   <![CDATA[
    .fil1 {fill:#065661}
    .fil0 {fill:#006775}
    .fil3 {fill:#CCCCCC}
    .fil5 {fill:#D45500}
    .fil2 {fill:#E6E6E6}
    .fil4 {fill:#F25500}
    .fil6 {fill:white}
   ]]>
  </style></defs><g id="circles"><circle class="fil0" cx="2464" cy="2464" r="2464"/><path class="fil1" d="M4921 2664c-102,1268 -1162,2265 -2456,2265 -120,0 -237,-9 -352,-25l-941 -889 55 -2301 1870 -248 -393 -512 523 0 1694 1710z"/></g><g id="icons"><g id="_504896384"><path class="fil2" d="M2677 1501c39,-61 97,-110 165,-137 -12,-21 -19,-46 -19,-72 0,-79 64,-144 144,-144 80,0 144,64 144,144 0,26 -7,51 -19,72 69,27 126,75 165,137l397 0 0 0c2,0 3,0 5,0l0 0c2,0 3,0 5,0l0 0c2,0 3,0 5,0l0 0c75,6 140,58 161,132l0 0c0,1 1,3 1,4 0,1 1,3 1,4l0 0c0,1 1,3 1,4l0 0c0,1 1,3 1,4l0 0c0,2 1,3 1,5l0 0c0,2 0,3 1,5l0 0c0,2 0,3 1,5l0 0c0,2 0,3 0,5l0 0c0,2 0,3 0,5l0 0c0,2 0,3 0,5l0 0c0,2 0,3 0,5l0 0 0 510 -365 0 0 -328 -215 0c-61,96 -168,160 -290,160 -122,0 -229,-64 -290,-160l-1260 0 0 1978c0,100 -82,182 -182,182l0 0c-100,0 -182,-82 -182,-182l0 -2160 0 0c0,-2 0,-3 0,-5l0 0c0,-2 0,-3 0,-5l0 0c0,-2 0,-3 0,-5l0 0c0,-2 0,-3 0,-5l0 0c0,-2 0,-3 1,-5l0 0c0,-2 0,-3 1,-5l0 0c0,-2 0,-3 1,-5l0 0c16,-87 92,-150 179,-150 481,0 961,0 1442,0z"/><path class="fil3" d="M3654 2193l-182 0 0 -328 -215 0c-61,96 -168,160 -290,160 -122,0 -229,-64 -290,-160l-1260 0 0 1978c0,100 -82,182 -182,182l0 0 -7 0 0 -2312 1530 0c15,104 104,184 212,184 108,0 197,-80 212,-184l471 0 0 470 0 10z"/><rect class="fil4" height="444" rx="64" ry="64" width="323" x="2171" y="1461"/><path class="fil5" d="M2494 1683l0 158c0,35 -29,64 -64,64l-195 0c-35,0 -64,-29 -64,-64l0 -158 323 0z"/><rect class="fil4" height="264" rx="45" ry="45" width="90" x="2920" y="928"/><path class="fil5" d="M2966 928l0 0 0 264 0 0c25,0 45,-20 45,-45l0 -174c0,-25 -20,-45 -45,-45z"/><g><path class="fil4" d="M2704 954l0 0c0,-28 28,-51 62,-51l399 0c34,0 62,23 62,51l0 0c0,28 -28,51 -62,51l-399 0c-34,0 -62,-23 -62,-51z"/><path class="fil5" d="M3227 954l-523 0c0,28 28,51 62,51l399 0c34,0 62,-23 62,-51z"/></g><g><path class="fil4" d="M3431 2183l0 0c0,-28 24,-51 53,-51l340 0c29,0 53,23 53,51l0 0c0,28 -24,51 -53,51l-340 0c-29,0 -53,-23 -53,-51z"/><path class="fil5" d="M3876 2183l-445 0c0,28 24,51 53,51l340 0c29,0 53,-23 53,-51z"/></g><g><g><rect class="fil6" height="221" rx="34" ry="34" width="68" x="3491" y="2279"/><path class="fil3" d="M3525 2279l0 0 0 221 0 0 1 0c18,0 33,-9 33,-19l0 -183c0,-10 -15,-19 -34,-19z"/></g><g><rect class="fil6" height="221" rx="34" ry="34" width="68" x="3749" y="2279"/><path class="fil3" d="M3783 2279l0 0 0 221 0 0 1 0c18,0 33,-9 33,-19l0 -183c0,-10 -15,-19 -34,-19z"/></g><g><rect class="fil6" height="221" rx="34" ry="34" width="68" x="3628" y="2409"/><path class="fil3" d="M3662 2409l0 0 0 221 0 0 1 0c18,0 33,-9 33,-19l0 -183c0,-10 -15,-19 -34,-19z"/></g><g><rect class="fil6" height="221" rx="34" ry="34" width="68" x="3491" y="2564"/><path class="fil3" d="M3525 2564l0 0 0 221 0 0 1 0c18,0 33,-9 33,-19l0 -183c0,-10 -15,-19 -34,-19z"/></g><g><rect class="fil6" height="221" rx="34" ry="34" width="68" x="3749" y="2564"/><path class="fil3" d="M3783 2564l0 0 0 221 0 0 1 0c18,0 33,-9 33,-19l0 -183c0,-10 -15,-19 -34,-19z"/></g><g><rect class="fil6" height="221" rx="34" ry="34" width="68" x="3628" y="2748"/><path class="fil3" d="M3662 2748l0 0 0 221 0 0 1 0c18,0 33,-9 33,-19l0 -183c0,-10 -15,-19 -34,-19z"/></g></g></g></g></svg>